<?xml version="1.0" encoding="UTF-8" standalone="no"?>
<svg
   version="1.0"
   width="1080.000000pt"
   height="1080.000000pt"
   viewBox="0 0 1080.000000 1080.000000"
   preserveAspectRatio="xMidYMid meet"
   id="svg6"
   sodipodi:docname="1bd47ac0a0ff905eda707499ae35c18f.svg"
   xmlns:inkscape="http://www.inkscape.org/namespaces/inkscape"
   xmlns:sodipodi="http://sodipodi.sourceforge.net/DTD/sodipodi-0.dtd"
   xmlns="http://www.w3.org/2000/svg"
   xmlns:svg="http://www.w3.org/2000/svg">
  <defs
     id="defs10" />
  <sodipodi:namedview
     id="namedview8"
     pagecolor="#ffffff"
     bordercolor="#666666"
     borderopacity="1.0"
     inkscape:pageshadow="2"
     inkscape:pageopacity="0.0"
     inkscape:pagecheckerboard="0"
     inkscape:document-units="pt" />
  <g
     transform="translate(0.000000,1080.000000) scale(0.100000,-0.100000)"
     fill="#000000"
     stroke="none"
     id="g4">
    <path
       d="M3530 10003 l-1905 -795 -797 -1910 -797 -1910 786 -1902 c432 -1045 791 -1906 797 -1913 6 -7 855 -363 1888 -792 1866 -777 1877 -781 1945 -781 68 0 82 5 1942 775 1031 426 1876 776 1877 778 2 2 348 832 769 1844 l765 1841 0 149 0 149 -765 1834 c-421 1008 -767 1835 -768 1837 -7 6 -3793 1584 -3812 1588 -12 2 -821 -330 -1925 -792z m1800 -379 c0 -470 -2 -854 -4 -854 -2 0 -42 -7 -89 -15 -344 -60 -644 -257 -822 -540 -21 -33 -39 -61 -41 -63 -2 -3 -2304 952 -2334 968 -11 7 -9 11 15 22 125 57 3262 1344 3268 1341 4 -2 7 -389 7 -859z m1915 176 c886 -364 1613 -666 1617 -669 4 -4 -521 -226 -1168 -495 -646 -269 -1176 -487 -1177 -485 -130 202 -231 310 -387 414 -133 88 -308 160 -450 185 -36 6 -75 13 -87 16 l-23 4 0 860 0 860 33 -13 c17 -8 757 -312 1642 -677z m-4116 -1396 c776 -323 1135 -477 1132 -486 -50 -187 -53 -208 -55 -313 0 -60 3 -139 7 -175 l8 -65 -633 -158 c-348 -86 -636 -157 -639 -157 -4 0 -21 22 -38 49 -91 141 -249 234 -426 249 l-80 7 -247 775 c-136 426 -248 776 -248 777 0 4 12 -1 1219 -503z m5456 -495 c-201 -541 -370 -995 -375 -1009 -10 -25 -11 -25 -122 -21 -130 4 -237 -11 -328 -47 -88 -34 -218 -121 -273 -182 -25 -28 -48 -50 -51 -50 -7 0 -828 450 -839 460 -5 4 2 39 16 76 51 141 62 216 61 404 0 155 -3 186 -26 270 -14 52 -28 101 -29 108 -3 9 363 167 1161 501 641 268 1166 485 1168 481 1 -3 -162 -449 -363 -991z m1278 -700 c362 -886 657 -1613 655 -1614 -2 -2 -388 101 -858 229 l-855 233 -6 94 c-8 119 -21 178 -59 278 -48 125 -151 255 -278 351 l-33 25 383 1007 c211 554 385 1008 388 1008 3 0 301 -725 663 -1611z m-7909 821 l236 -745 -22 -15 c-97 -63 -196 -192 -228 -298 -25 -82 -27 -214 -3 -289 15 -46 15 -55 2 -67 -20 -19 -1520 -969 -1523 -965 -2 3 1174 2872 1273 3107 8 18 17 29 21 25 4 -4 114 -343 244 -753z m2355 -937 c26 -76 104 -220 155 -288 100 -132 225 -244 354 -317 29 -17 52 -34 50 -38 -2 -4 -156 -375 -343 -824 l-340 -818 -45 7 c-216 30 -434 19 -550 -29 -12 -5 -99 169 -397 787 -211 436 -383 797 -383 803 0 6 13 20 30 32 75 56 155 219 166 342 6 60 10 71 28 75 12 3 291 72 621 154 330 82 609 149 620 150 16 1 24 -9 34 -36z m2641 -512 c206 -113 364 -206 363 -213 -1 -7 -9 -47 -18 -88 -23 -101 -16 -267 15 -365 42 -134 96 -221 200 -326 l96 -97 -252 -552 c-139 -303 -254 -553 -256 -555 -2 -2 -25 1 -52 6 -28 5 -72 5 -103 0 l-55 -8 -13 31 c-472 1140 -829 2005 -832 2017 -3 11 21 32 79 69 92 60 242 205 302 292 l39 57 61 -34 c34 -18 225 -124 426 -234z m-4775 -246 c97 -58 178 -78 299 -73 l103 3 383 -794 383 -795 -33 -25 c-114 -87 -218 -196 -267 -279 -18 -30 -31 -42 -43 -39 -52 13 -2558 1053 -2552 1059 4 4 369 236 812 517 l804 511 26 -24 c14 -14 52 -41 85 -61z m3025 -2 c110 -25 385 -25 500 1 47 10 94 19 104 20 16 1 85 -158 444 -1026 l424 -1027 -58 -54 c-65 -61 -119 -142 -145 -221 l-18 -51 -791 -3 c-628 -2 -791 0 -794 10 -2 7 -12 52 -24 100 -57 237 -196 442 -384 568 -37 25 -68 49 -68 53 0 4 151 373 336 820 185 447 339 818 341 825 6 15 5 15 133 -15z m4365 -738 c447 -118 816 -215 821 -215 4 0 4 -4 -2 -10 -5 -5 -668 -281 -1473 -614 l-1464 -606 -61 67 c-34 37 -61 72 -61 80 0 7 115 258 255 558 l255 546 40 -7 c217 -36 396 -8 560 88 91 53 220 183 263 266 18 34 38 62 44 62 5 0 376 -97 823 -215z m-7810 -995 c638 -265 1164 -486 1168 -490 4 -4 1 -32 -7 -63 -61 -233 -5 -522 144 -745 l51 -76 -278 -281 c-153 -154 -460 -463 -683 -687 l-405 -407 -678 1652 c-372 909 -677 1655 -677 1659 0 4 46 -13 103 -36 56 -24 624 -260 1262 -526z m8072 -1070 c-365 -894 -666 -1633 -670 -1644 -6 -16 -12 -14 -50 20 -23 21 -408 401 -855 844 l-813 806 30 65 c38 80 53 154 49 244 l-3 70 1485 616 c817 339 1486 613 1488 609 1 -3 -296 -737 -661 -1630z m-3357 148 c30 -98 121 -217 192 -254 16 -8 26 -18 24 -23 -3 -4 -280 -671 -616 -1482 -336 -811 -615 -1478 -619 -1482 -5 -4 -17 14 -29 40 -51 122 -1025 2490 -1029 2503 -3 10 23 35 73 70 152 108 283 278 342 444 26 70 37 113 58 224 l4 22 791 -2 791 -3 18 -57z m1650 -1143 c464 -464 842 -847 838 -850 -10 -11 -3281 -1356 -3285 -1351 -3 3 1053 2561 1209 2928 l20 47 63 -6 c80 -7 175 11 245 46 30 15 57 29 60 30 3 0 385 -379 850 -844z m-4774 490 c205 -136 470 -192 704 -150 52 9 101 18 108 18 9 1 201 -453 541 -1278 290 -704 526 -1282 525 -1284 -5 -6 -3294 1353 -3292 1360 4 11 1349 1369 1356 1369 2 0 29 -16 58 -35z"
       id="path2" />
  </g>
</svg>
